<svg id="visual" viewBox="0 0 900 600" width="900" height="600" xmlns="http://www.w3.org/2000/svg" xmlns:xlink="http://www.w3.org/1999/xlink" version="1.1"><path d="M0 429L39 429L39 534L78 534L78 447L117 447L117 534L157 534L157 485L196 485L196 432L235 432L235 512L274 512L274 426L313 426L313 517L352 517L352 495L391 495L391 534L430 534L430 505L470 505L470 452L509 452L509 428L548 428L548 457L587 457L587 519L626 519L626 432L665 432L665 521L704 521L704 437L743 437L743 437L783 437L783 451L822 451L822 479L861 479L861 511L900 511L900 441L900 601L900 601L861 601L861 601L822 601L822 601L783 601L783 601L743 601L743 601L704 601L704 601L665 601L665 601L626 601L626 601L587 601L587 601L548 601L548 601L509 601L509 601L470 601L470 601L430 601L430 601L391 601L391 601L352 601L352 601L313 601L313 601L274 601L274 601L235 601L235 601L196 601L196 601L157 601L157 601L117 601L117 601L78 601L78 601L39 601L39 601L0 601Z" fill="#6600ff"></path><path d="M0 451L39 451L39 463L78 463L78 521L117 521L117 547L157 547L157 489L196 489L196 469L235 469L235 474L274 474L274 535L313 535L313 544L352 544L352 459L391 459L391 498L430 498L430 499L470 499L470 529L509 529L509 490L548 490L548 509L587 509L587 491L626 491L626 538L665 538L665 517L704 517L704 511L743 511L743 483L783 483L783 539L822 539L822 530L861 530L861 504L900 504L900 482L900 601L900 601L861 601L861 601L822 601L822 601L783 601L783 601L743 601L743 601L704 601L704 601L665 601L665 601L626 601L626 601L587 601L587 601L548 601L548 601L509 601L509 601L470 601L470 601L430 601L430 601L391 601L391 601L352 601L352 601L313 601L313 601L274 601L274 601L235 601L235 601L196 601L196 601L157 601L157 601L117 601L117 601L78 601L78 601L39 601L39 601L0 601Z" fill="#ff0074"></path><path d="M0 557L39 557L39 502L78 502L78 487L117 487L117 497L157 497L157 553L196 553L196 559L235 559L235 537L274 537L274 560L313 560L313 506L352 506L352 556L391 556L391 521L430 521L430 535L470 535L470 552L509 552L509 483L548 483L548 517L587 517L587 482L626 482L626 556L665 556L665 513L704 513L704 515L743 515L743 473L783 473L783 551L822 551L822 490L861 490L861 496L900 496L900 545L900 601L900 601L861 601L861 601L822 601L822 601L783 601L783 601L743 601L743 601L704 601L704 601L665 601L665 601L626 601L626 601L587 601L587 601L548 601L548 601L509 601L509 601L470 601L470 601L430 601L430 601L391 601L391 601L352 601L352 601L313 601L313 601L274 601L274 601L235 601L235 601L196 601L196 601L157 601L157 601L117 601L117 601L78 601L78 601L39 601L39 601L0 601Z" fill="#f7770f"></path><path d="M0 537L39 537L39 529L78 529L78 510L117 510L117 526L157 526L157 503L196 503L196 523L235 523L235 519L274 519L274 532L313 532L313 523L352 523L352 564L391 564L391 525L430 525L430 517L470 517L470 550L509 550L509 561L548 561L548 565L587 565L587 511L626 511L626 511L665 511L665 504L704 504L704 535L743 535L743 566L783 566L783 562L822 562L822 543L861 543L861 509L900 509L900 551L900 601L900 601L861 601L861 601L822 601L822 601L783 601L783 601L743 601L743 601L704 601L704 601L665 601L665 601L626 601L626 601L587 601L587 601L548 601L548 601L509 601L509 601L470 601L470 601L430 601L430 601L391 601L391 601L352 601L352 601L313 601L313 601L274 601L274 601L235 601L235 601L196 601L196 601L157 601L157 601L117 601L117 601L78 601L78 601L39 601L39 601L0 601Z" fill="#f7770f"></path><path d="M0 560L39 560L39 577L78 577L78 573L117 573L117 570L157 570L157 573L196 573L196 544L235 544L235 542L274 542L274 559L313 559L313 574L352 574L352 569L391 569L391 557L430 557L430 559L470 559L470 573L509 573L509 562L548 562L548 544L587 544L587 541L626 541L626 528L665 528L665 579L704 579L704 529L743 529L743 527L783 527L783 530L822 530L822 569L861 569L861 550L900 550L900 562L900 601L900 601L861 601L861 601L822 601L822 601L783 601L783 601L743 601L743 601L704 601L704 601L665 601L665 601L626 601L626 601L587 601L587 601L548 601L548 601L509 601L509 601L470 601L470 601L430 601L430 601L391 601L391 601L352 601L352 601L313 601L313 601L274 601L274 601L235 601L235 601L196 601L196 601L157 601L157 601L117 601L117 601L78 601L78 601L39 601L39 601L0 601Z" fill="#ff0074"></path><path d="M0 581L39 581L39 568L78 568L78 578L117 578L117 573L157 573L157 569L196 569L196 583L235 583L235 576L274 576L274 554L313 554L313 561L352 561L352 550L391 550L391 577L430 577L430 593L470 593L470 597L509 597L509 556L548 556L548 589L587 589L587 569L626 569L626 549L665 549L665 578L704 578L704 593L743 593L743 563L783 563L783 590L822 590L822 575L861 575L861 559L900 559L900 588L900 601L900 601L861 601L861 601L822 601L822 601L783 601L783 601L743 601L743 601L704 601L704 601L665 601L665 601L626 601L626 601L587 601L587 601L548 601L548 601L509 601L509 601L470 601L470 601L430 601L430 601L391 601L391 601L352 601L352 601L313 601L313 601L274 601L274 601L235 601L235 601L196 601L196 601L157 601L157 601L117 601L117 601L78 601L78 601L39 601L39 601L0 601Z" fill="#6600ff"></path></svg>