<svg id="visual"
     viewBox="0 0 900 600"
     width="900"
     height="600"
     xmlns="http://www.w3.org/2000/svg"
     xmlns:xlink="http://www.w3.org/1999/xlink"
     version="1.1">
    <path d="M0 467L39 467L39 521L78 521L78 513L117 513L117 445L157 445L157 519L196 519L196 502L235 502L235 479L274 479L274 439L313 439L313 488L352 488L352 462L391 462L391 488L430 488L430 451L470 451L470 480L509 480L509 462L548 462L548 497L587 497L587 489L626 489L626 428L665 428L665 470L704 470L704 509L743 509L743 430L783 430L783 496L822 496L822 430L861 430L861 517L900 517L900 467L900 601L900 601L861 601L861 601L822 601L822 601L783 601L783 601L743 601L743 601L704 601L704 601L665 601L665 601L626 601L626 601L587 601L587 601L548 601L548 601L509 601L509 601L470 601L470 601L430 601L430 601L391 601L391 601L352 601L352 601L313 601L313 601L274 601L274 601L235 601L235 601L196 601L196 601L157 601L157 601L117 601L117 601L78 601L78 601L39 601L39 601L0 601Z"
          fill="#6600ff" />
    <path d="M0 464L39 464L39 462L78 462L78 510L117 510L117 545L157 545L157 477L196 477L196 504L235 504L235 487L274 487L274 479L313 479L313 448L352 448L352 497L391 497L391 501L430 501L430 523L470 523L470 500L509 500L509 524L548 524L548 460L587 460L587 486L626 486L626 535L665 535L665 494L704 494L704 446L743 446L743 486L783 486L783 495L822 495L822 448L861 448L861 478L900 478L900 510L900 601L900 601L861 601L861 601L822 601L822 601L783 601L783 601L743 601L743 601L704 601L704 601L665 601L665 601L626 601L626 601L587 601L587 601L548 601L548 601L509 601L509 601L470 601L470 601L430 601L430 601L391 601L391 601L352 601L352 601L313 601L313 601L274 601L274 601L235 601L235 601L196 601L196 601L157 601L157 601L117 601L117 601L78 601L78 601L39 601L39 601L0 601Z"
          fill="#ff0074" />
    <path d="M0 475L39 475L39 530L78 530L78 477L117 477L117 529L157 529L157 542L196 542L196 498L235 498L235 520L274 520L274 534L313 534L313 558L352 558L352 553L391 553L391 553L430 553L430 511L470 511L470 544L509 544L509 480L548 480L548 471L587 471L587 533L626 533L626 559L665 559L665 473L704 473L704 483L743 483L743 513L783 513L783 529L822 529L822 505L861 505L861 527L900 527L900 516L900 601L900 601L861 601L861 601L822 601L822 601L783 601L783 601L743 601L743 601L704 601L704 601L665 601L665 601L626 601L626 601L587 601L587 601L548 601L548 601L509 601L509 601L470 601L470 601L430 601L430 601L391 601L391 601L352 601L352 601L313 601L313 601L274 601L274 601L235 601L235 601L196 601L196 601L157 601L157 601L117 601L117 601L78 601L78 601L39 601L39 601L0 601Z"
          fill="#f7770f" />
    <path d="M0 530L39 530L39 545L78 545L78 563L117 563L117 564L157 564L157 547L196 547L196 566L235 566L235 532L274 532L274 505L313 505L313 508L352 508L352 553L391 553L391 532L430 532L430 553L470 553L470 514L509 514L509 526L548 526L548 556L587 556L587 509L626 509L626 569L665 569L665 560L704 560L704 542L743 542L743 538L783 538L783 497L822 497L822 507L861 507L861 564L900 564L900 501L900 601L900 601L861 601L861 601L822 601L822 601L783 601L783 601L743 601L743 601L704 601L704 601L665 601L665 601L626 601L626 601L587 601L587 601L548 601L548 601L509 601L509 601L470 601L470 601L430 601L430 601L391 601L391 601L352 601L352 601L313 601L313 601L274 601L274 601L235 601L235 601L196 601L196 601L157 601L157 601L117 601L117 601L78 601L78 601L39 601L39 601L0 601Z"
          fill="#f7770f" />
    <path d="M0 574L39 574L39 562L78 562L78 537L117 537L117 554L157 554L157 579L196 579L196 561L235 561L235 530L274 530L274 557L313 557L313 572L352 572L352 563L391 563L391 547L430 547L430 522L470 522L470 525L509 525L509 569L548 569L548 581L587 581L587 549L626 549L626 564L665 564L665 524L704 524L704 531L743 531L743 550L783 550L783 576L822 576L822 539L861 539L861 541L900 541L900 586L900 601L900 601L861 601L861 601L822 601L822 601L783 601L783 601L743 601L743 601L704 601L704 601L665 601L665 601L626 601L626 601L587 601L587 601L548 601L548 601L509 601L509 601L470 601L470 601L430 601L430 601L391 601L391 601L352 601L352 601L313 601L313 601L274 601L274 601L235 601L235 601L196 601L196 601L157 601L157 601L117 601L117 601L78 601L78 601L39 601L39 601L0 601Z"
          fill="#ff0074" />
    <path d="M0 598L39 598L39 593L78 593L78 575L117 575L117 597L157 597L157 581L196 581L196 583L235 583L235 588L274 588L274 592L313 592L313 559L352 559L352 583L391 583L391 589L430 589L430 562L470 562L470 569L509 569L509 554L548 554L548 594L587 594L587 572L626 572L626 557L665 557L665 551L704 551L704 568L743 568L743 569L783 569L783 574L822 574L822 577L861 577L861 581L900 581L900 567L900 601L900 601L861 601L861 601L822 601L822 601L783 601L783 601L743 601L743 601L704 601L704 601L665 601L665 601L626 601L626 601L587 601L587 601L548 601L548 601L509 601L509 601L470 601L470 601L430 601L430 601L391 601L391 601L352 601L352 601L313 601L313 601L274 601L274 601L235 601L235 601L196 601L196 601L157 601L157 601L117 601L117 601L78 601L78 601L39 601L39 601L0 601Z"
          fill="#6600ff" />
</svg>