<svg id="visual" viewBox="0 0 900 600" width="900" height="600" xmlns="http://www.w3.org/2000/svg" xmlns:xlink="http://www.w3.org/1999/xlink" version="1.1"><path d="M0 472L39 472L39 428L78 428L78 525L117 525L117 482L157 482L157 519L196 519L196 520L235 520L235 499L274 499L274 529L313 529L313 522L352 522L352 448L391 448L391 428L430 428L430 462L470 462L470 507L509 507L509 470L548 470L548 462L587 462L587 440L626 440L626 499L665 499L665 530L704 530L704 455L743 455L743 476L783 476L783 494L822 494L822 517L861 517L861 426L900 426L900 488L900 601L900 601L861 601L861 601L822 601L822 601L783 601L783 601L743 601L743 601L704 601L704 601L665 601L665 601L626 601L626 601L587 601L587 601L548 601L548 601L509 601L509 601L470 601L470 601L430 601L430 601L391 601L391 601L352 601L352 601L313 601L313 601L274 601L274 601L235 601L235 601L196 601L196 601L157 601L157 601L117 601L117 601L78 601L78 601L39 601L39 601L0 601Z" fill="#6600ff"></path><path d="M0 469L39 469L39 508L78 508L78 506L117 506L117 532L157 532L157 497L196 497L196 511L235 511L235 544L274 544L274 547L313 547L313 467L352 467L352 527L391 527L391 458L430 458L430 505L470 505L470 464L509 464L509 544L548 544L548 526L587 526L587 533L626 533L626 536L665 536L665 528L704 528L704 445L743 445L743 495L783 495L783 502L822 502L822 532L861 532L861 451L900 451L900 456L900 601L900 601L861 601L861 601L822 601L822 601L783 601L783 601L743 601L743 601L704 601L704 601L665 601L665 601L626 601L626 601L587 601L587 601L548 601L548 601L509 601L509 601L470 601L470 601L430 601L430 601L391 601L391 601L352 601L352 601L313 601L313 601L274 601L274 601L235 601L235 601L196 601L196 601L157 601L157 601L117 601L117 601L78 601L78 601L39 601L39 601L0 601Z" fill="#ff0074"></path><path d="M0 544L39 544L39 481L78 481L78 509L117 509L117 485L157 485L157 485L196 485L196 526L235 526L235 485L274 485L274 502L313 502L313 552L352 552L352 554L391 554L391 549L430 549L430 546L470 546L470 552L509 552L509 511L548 511L548 536L587 536L587 512L626 512L626 480L665 480L665 512L704 512L704 560L743 560L743 488L783 488L783 512L822 512L822 480L861 480L861 520L900 520L900 560L900 601L900 601L861 601L861 601L822 601L822 601L783 601L783 601L743 601L743 601L704 601L704 601L665 601L665 601L626 601L626 601L587 601L587 601L548 601L548 601L509 601L509 601L470 601L470 601L430 601L430 601L391 601L391 601L352 601L352 601L313 601L313 601L274 601L274 601L235 601L235 601L196 601L196 601L157 601L157 601L117 601L117 601L78 601L78 601L39 601L39 601L0 601Z" fill="#f7770f"></path><path d="M0 531L39 531L39 563L78 563L78 542L117 542L117 511L157 511L157 523L196 523L196 531L235 531L235 524L274 524L274 497L313 497L313 523L352 523L352 569L391 569L391 568L430 568L430 553L470 553L470 501L509 501L509 566L548 566L548 534L587 534L587 525L626 525L626 525L665 525L665 558L704 558L704 519L743 519L743 523L783 523L783 573L822 573L822 551L861 551L861 516L900 516L900 572L900 601L900 601L861 601L861 601L822 601L822 601L783 601L783 601L743 601L743 601L704 601L704 601L665 601L665 601L626 601L626 601L587 601L587 601L548 601L548 601L509 601L509 601L470 601L470 601L430 601L430 601L391 601L391 601L352 601L352 601L313 601L313 601L274 601L274 601L235 601L235 601L196 601L196 601L157 601L157 601L117 601L117 601L78 601L78 601L39 601L39 601L0 601Z" fill="#f7770f"></path><path d="M0 529L39 529L39 548L78 548L78 576L117 576L117 552L157 552L157 574L196 574L196 554L235 554L235 540L274 540L274 539L313 539L313 575L352 575L352 575L391 575L391 569L430 569L430 577L470 577L470 532L509 532L509 578L548 578L548 585L587 585L587 578L626 578L626 528L665 528L665 526L704 526L704 572L743 572L743 580L783 580L783 576L822 576L822 555L861 555L861 554L900 554L900 538L900 601L900 601L861 601L861 601L822 601L822 601L783 601L783 601L743 601L743 601L704 601L704 601L665 601L665 601L626 601L626 601L587 601L587 601L548 601L548 601L509 601L509 601L470 601L470 601L430 601L430 601L391 601L391 601L352 601L352 601L313 601L313 601L274 601L274 601L235 601L235 601L196 601L196 601L157 601L157 601L117 601L117 601L78 601L78 601L39 601L39 601L0 601Z" fill="#ff0074"></path><path d="M0 585L39 585L39 575L78 575L78 588L117 588L117 556L157 556L157 559L196 559L196 593L235 593L235 554L274 554L274 592L313 592L313 582L352 582L352 550L391 550L391 556L430 556L430 589L470 589L470 572L509 572L509 567L548 567L548 568L587 568L587 557L626 557L626 559L665 559L665 578L704 578L704 570L743 570L743 571L783 571L783 571L822 571L822 551L861 551L861 594L900 594L900 596L900 601L900 601L861 601L861 601L822 601L822 601L783 601L783 601L743 601L743 601L704 601L704 601L665 601L665 601L626 601L626 601L587 601L587 601L548 601L548 601L509 601L509 601L470 601L470 601L430 601L430 601L391 601L391 601L352 601L352 601L313 601L313 601L274 601L274 601L235 601L235 601L196 601L196 601L157 601L157 601L117 601L117 601L78 601L78 601L39 601L39 601L0 601Z" fill="#6600ff"></path></svg>