<svg id="visual" viewBox="0 0 900 600" width="900" height="600" xmlns="http://www.w3.org/2000/svg" xmlns:xlink="http://www.w3.org/1999/xlink" version="1.1"><path d="M0 354L21.5 368.3C43 382.7 86 411.3 128.8 424C171.7 436.7 214.3 433.3 257.2 419.5C300 405.7 343 381.3 385.8 376.7C428.7 372 471.3 387 514.2 395.3C557 403.7 600 405.3 642.8 397.7C685.7 390 728.3 373 771.2 370.2C814 367.3 857 378.7 878.5 384.3L900 390L900 601L878.5 601C857 601 814 601 771.2 601C728.3 601 685.7 601 642.8 601C600 601 557 601 514.2 601C471.3 601 428.7 601 385.8 601C343 601 300 601 257.2 601C214.3 601 171.7 601 128.8 601C86 601 43 601 21.5 601L0 601Z" fill="#4d5067"></path><path d="M0 431L21.5 432.3C43 433.7 86 436.3 128.8 431.7C171.7 427 214.3 415 257.2 415.7C300 416.3 343 429.7 385.8 434.8C428.7 440 471.3 437 514.2 440.8C557 444.7 600 455.3 642.8 462.2C685.7 469 728.3 472 771.2 467.7C814 463.3 857 451.7 878.5 445.8L900 440L900 601L878.5 601C857 601 814 601 771.2 601C728.3 601 685.7 601 642.8 601C600 601 557 601 514.2 601C471.3 601 428.7 601 385.8 601C343 601 300 601 257.2 601C214.3 601 171.7 601 128.8 601C86 601 43 601 21.5 601L0 601Z" fill="#454d80"></path><path d="M0 506L21.5 506.2C43 506.3 86 506.7 128.8 502.8C171.7 499 214.3 491 257.2 484.2C300 477.3 343 471.7 385.8 468.3C428.7 465 471.3 464 514.2 463.5C557 463 600 463 642.8 467.3C685.7 471.7 728.3 480.3 771.2 485.5C814 490.7 857 492.3 878.5 493.2L900 494L900 601L878.5 601C857 601 814 601 771.2 601C728.3 601 685.7 601 642.8 601C600 601 557 601 514.2 601C471.3 601 428.7 601 385.8 601C343 601 300 601 257.2 601C214.3 601 171.7 601 128.8 601C86 601 43 601 21.5 601L0 601Z" fill="#3a4899"></path><path d="M0 488L21.5 494.8C43 501.7 86 515.3 128.8 516.7C171.7 518 214.3 507 257.2 502C300 497 343 498 385.8 497.5C428.7 497 471.3 495 514.2 493.3C557 491.7 600 490.3 642.8 496.2C685.7 502 728.3 515 771.2 520.3C814 525.7 857 523.3 878.5 522.2L900 521L900 601L878.5 601C857 601 814 601 771.2 601C728.3 601 685.7 601 642.8 601C600 601 557 601 514.2 601C471.3 601 428.7 601 385.8 601C343 601 300 601 257.2 601C214.3 601 171.7 601 128.8 601C86 601 43 601 21.5 601L0 601Z" fill="#2e41b1"></path><path d="M0 561L21.5 562.2C43 563.3 86 565.7 128.8 564.3C171.7 563 214.3 558 257.2 559C300 560 343 567 385.8 563.8C428.7 560.7 471.3 547.3 514.2 544.3C557 541.3 600 548.7 642.8 552.2C685.7 555.7 728.3 555.3 771.2 553.2C814 551 857 547 878.5 545L900 543L900 601L878.5 601C857 601 814 601 771.2 601C728.3 601 685.7 601 642.8 601C600 601 557 601 514.2 601C471.3 601 428.7 601 385.8 601C343 601 300 601 257.2 601C214.3 601 171.7 601 128.8 601C86 601 43 601 21.5 601L0 601Z" fill="#2438c7"></path></svg>