<svg width="307" height="308" viewBox="0 0 307 308" fill="none" xmlns="http://www.w3.org/2000/svg">
<mask id="mask0_360_94" style="mask-type:luminance" maskUnits="userSpaceOnUse" x="0" y="0" width="307" height="308">
<path d="M0 0H307V307.333H0V0Z" fill="white"/>
</mask>
<g mask="url(#mask0_360_94)">
<path d="M281.523 0H25.8151C11.6745 0 0.304688 11.526 0.304688 25.5104V281.677C0.304688 295.818 11.8307 307.188 25.8151 307.188H281.367C295.508 307.188 306.878 295.661 306.878 281.677V25.5104C307.029 11.526 295.659 0 281.523 0ZM91.1224 253.401H45.7891V117.25H91.1224V253.401ZM68.3828 100.807C54.0911 100.807 42.5651 89.2813 42.5651 74.9896C42.5651 60.6979 54.0911 49.1771 68.3828 49.1771C82.6745 49.1771 94.1953 60.6979 94.1953 74.9896C94.1953 89.2813 82.6745 100.807 68.3828 100.807ZM261.701 253.401H216.211L215.138 172.573C215.138 172.573 216.211 151.057 192.701 151.214C169.19 151.365 165.961 172.573 165.961 172.573V253.401H120.169V117.25H164.117V136C164.117 136 165.961 129.854 176.102 122.63C186.247 115.406 202.997 113.87 210.216 114.177C217.44 114.484 227.279 113.255 243.721 124.625C261.393 136.766 261.852 168.578 261.852 168.578L261.701 253.401Z" fill="white"/>
</g>
</svg>
