<svg width="288" height="281" viewBox="0 0 288 281" fill="none" xmlns="http://www.w3.org/2000/svg">
<path d="M127.586 1.33857C62.4502 8.55732 9.37729 61.1146 1.51791 126.146C1.0075 130.234 0.674164 134.333 0.517915 138.448C0.361666 142.557 0.382497 146.672 0.575207 150.781C0.773123 154.896 1.14292 158.99 1.68979 163.073C2.23667 167.151 2.96062 171.203 3.85125 175.219C4.74708 179.24 5.80958 183.208 7.04917 187.135C8.28354 191.063 9.68458 194.932 11.2471 198.74C12.8148 202.547 14.544 206.276 16.4294 209.938C18.3148 213.594 20.3565 217.167 22.5492 220.651C24.7419 224.135 27.0804 227.516 29.5596 230.802C32.044 234.083 34.6637 237.255 37.419 240.313C40.1742 243.375 43.0544 246.307 46.0596 249.12C49.0648 251.932 52.1898 254.609 55.4242 257.156C58.6637 259.698 62.0023 262.099 65.445 264.359C68.8825 266.615 72.419 268.724 76.0387 270.677C79.6637 272.63 83.3617 274.427 87.1377 276.068C90.919 277.703 94.7575 279.177 98.6585 280.484C105.846 281.635 108.148 277.182 108.148 273.307V249.026C68.3617 257.667 59.8877 229.786 59.8877 229.786C53.2992 213.125 43.945 208.672 43.945 208.672C30.8721 199.76 44.9658 200.057 44.9658 200.057C59.32 201.073 66.9346 214.849 66.9346 214.849C79.4346 236.682 100.539 230.214 108.726 226.766C110.018 217.432 113.81 211.109 117.773 207.521C85.8356 203.932 52.419 191.578 52.419 136.865C52.419 120.922 57.8773 108.141 67.2106 97.9427C65.7783 94.3542 60.7419 79.4167 68.6429 60.0261C68.6429 60.0261 80.7158 56.1407 108.148 74.6771C114.002 73.1042 119.929 71.9167 125.94 71.1198C131.95 70.3282 137.987 69.9271 144.049 69.9271C150.112 69.9271 156.148 70.3282 162.159 71.1198C168.164 71.9167 174.096 73.1042 179.95 74.6771C207.403 56.1407 219.455 60.0261 219.455 60.0261C227.346 79.4167 222.32 94.3542 220.888 97.9427C230.221 108.109 235.679 120.922 235.679 136.865C235.679 191.719 202.065 203.786 170.049 207.38C175.211 211.833 179.95 220.594 179.95 233.948V273.307C179.95 277.182 182.247 281.776 189.58 280.484C191.664 279.786 193.726 279.042 195.773 278.25C197.825 277.458 199.851 276.62 201.862 275.734C203.872 274.849 205.856 273.917 207.825 272.943C209.794 271.964 211.737 270.943 213.653 269.88C215.575 268.813 217.471 267.703 219.341 266.552C221.211 265.401 223.049 264.208 224.867 262.969C226.679 261.734 228.466 260.453 230.221 259.135C231.976 257.818 233.7 256.458 235.393 255.063C237.091 253.667 238.747 252.229 240.377 250.755C242.008 249.281 243.596 247.771 245.159 246.229C246.716 244.682 248.237 243.099 249.726 241.484C251.211 239.865 252.659 238.219 254.07 236.536C255.481 234.854 256.851 233.135 258.185 231.391C259.518 229.646 260.81 227.87 262.06 226.068C263.31 224.26 264.518 222.432 265.685 220.568C266.851 218.708 267.976 216.823 269.054 214.911C270.138 213 271.174 211.068 272.164 209.109C273.159 207.146 274.101 205.167 275.002 203.167C275.903 201.161 276.758 199.141 277.57 197.099C278.377 195.057 279.138 193 279.851 190.922C280.565 188.844 281.231 186.755 281.851 184.646C282.471 182.542 283.039 180.422 283.56 178.286C284.08 176.156 284.554 174.01 284.976 171.854C285.398 169.703 285.773 167.536 286.096 165.365C286.419 163.193 286.695 161.016 286.914 158.833C287.138 156.646 287.315 154.458 287.44 152.266C287.56 150.073 287.633 147.88 287.659 145.682C287.679 143.49 287.653 141.292 287.575 139.099C287.497 136.906 287.372 134.714 287.195 132.526C287.018 130.339 286.789 128.151 286.508 125.974C286.231 123.797 285.903 121.625 285.528 119.464C285.148 117.302 284.721 115.146 284.247 113.005C283.773 110.859 283.247 108.729 282.674 106.609C282.096 104.49 281.476 102.385 280.804 100.292C280.138 98.2032 279.419 96.1302 278.653 94.0677C277.888 92.0104 277.075 89.974 276.216 87.9532C275.356 85.9323 274.455 83.9323 273.502 81.9532C272.554 79.974 271.56 78.0157 270.518 76.0834C269.476 74.1459 268.393 72.2396 267.268 70.3542C266.138 68.4688 264.971 66.6146 263.758 64.7813C262.544 62.9532 261.289 61.1511 259.997 59.375C258.7 57.6042 257.367 55.8594 255.992 54.1459C254.617 52.4375 253.2 50.7552 251.752 49.1094C250.299 47.4636 248.81 45.849 247.284 44.2709C245.758 42.6927 244.195 41.1459 242.601 39.6407C241.002 38.1354 239.372 36.6615 237.711 35.2292C236.044 33.7969 234.351 32.4063 232.622 31.0469C230.893 29.6927 229.138 28.3802 227.346 27.1042C225.56 25.8282 223.742 24.599 221.898 23.4063C220.054 22.2136 218.185 21.0677 216.289 19.9584C214.388 18.8542 212.466 17.7917 210.523 16.7761C208.575 15.7604 206.606 14.7865 204.617 13.8594C202.627 12.9323 200.617 12.0521 198.586 11.2136C196.554 10.3802 194.508 9.59378 192.44 8.84898C190.372 8.1094 188.289 7.41669 186.19 6.77086C184.096 6.12503 181.981 5.52607 179.856 4.97919C177.731 4.42711 175.591 3.92711 173.445 3.47398C171.294 3.02607 169.138 2.62503 166.971 2.27086C164.799 1.91669 162.627 1.61461 160.445 1.36461C158.263 1.1094 156.08 0.906277 153.888 0.755234C151.7 0.604193 149.508 0.500025 147.31 0.447942C145.117 0.395858 142.919 0.395859 140.726 0.442734C138.528 0.494818 136.336 0.593775 134.148 0.739609C131.955 0.890651 129.768 1.08857 127.586 1.33857Z" fill="white"/>
</svg>
